<mxfile host="app.diagrams.net" agent="Mozilla/5.0 (Windows NT 10.0; Win64; x64; rv:137.0) Gecko/20100101 Firefox/137.0" version="26.2.12">
  <diagram name="Page-1" id="QXRyY6b3OzbEZkzuThCT">
    <mxGraphModel dx="1559" dy="798" grid="1" gridSize="10" guides="1" tooltips="1" connect="1" arrows="1" fold="1" page="1" pageScale="1" pageWidth="850" pageHeight="1100" math="0" shadow="0">
      <root>
        <mxCell id="0" />
        <mxCell id="1" parent="0" />
        <mxCell id="s7PfLLSVUXhe3LHx3dvH-65" value="" style="group" vertex="1" connectable="0" parent="1">
          <mxGeometry x="320" width="530" height="690" as="geometry" />
        </mxCell>
        <mxCell id="2" value="IntroAnimation" style="whiteSpace=wrap;strokeWidth=2;" parent="s7PfLLSVUXhe3LHx3dvH-65" vertex="1">
          <mxGeometry x="158" y="90" width="95" height="54" as="geometry" />
        </mxCell>
        <mxCell id="s7PfLLSVUXhe3LHx3dvH-44" style="edgeStyle=orthogonalEdgeStyle;rounded=0;orthogonalLoop=1;jettySize=auto;html=1;entryX=0;entryY=0.5;entryDx=0;entryDy=0;" edge="1" parent="s7PfLLSVUXhe3LHx3dvH-65" source="3" target="s7PfLLSVUXhe3LHx3dvH-43">
          <mxGeometry relative="1" as="geometry">
            <Array as="points">
              <mxPoint x="335" y="242" />
              <mxPoint x="335" y="362" />
            </Array>
          </mxGeometry>
        </mxCell>
        <mxCell id="s7PfLLSVUXhe3LHx3dvH-45" value="&lt;div&gt;Btn:ESC&lt;/div&gt;" style="edgeLabel;html=1;align=center;verticalAlign=middle;resizable=0;points=[];" vertex="1" connectable="0" parent="s7PfLLSVUXhe3LHx3dvH-44">
          <mxGeometry x="-0.0534" relative="1" as="geometry">
            <mxPoint as="offset" />
          </mxGeometry>
        </mxCell>
        <mxCell id="3" value="MainIntro" style="whiteSpace=wrap;strokeWidth=2;" parent="s7PfLLSVUXhe3LHx3dvH-65" vertex="1">
          <mxGeometry x="138" y="202" width="135" height="54" as="geometry" />
        </mxCell>
        <mxCell id="14" value="Initialize" style="curved=1;startArrow=none;endArrow=block;exitX=0.5;exitY=1;entryX=0.5;entryY=0;exitDx=0;exitDy=0;" parent="s7PfLLSVUXhe3LHx3dvH-65" source="2" target="3" edge="1">
          <mxGeometry x="0.0049" relative="1" as="geometry">
            <Array as="points" />
            <mxPoint as="offset" />
          </mxGeometry>
        </mxCell>
        <mxCell id="s7PfLLSVUXhe3LHx3dvH-40" style="edgeStyle=orthogonalEdgeStyle;rounded=0;orthogonalLoop=1;jettySize=auto;html=1;entryX=0;entryY=0.5;entryDx=0;entryDy=0;" edge="1" parent="s7PfLLSVUXhe3LHx3dvH-65" source="s7PfLLSVUXhe3LHx3dvH-33" target="3">
          <mxGeometry relative="1" as="geometry">
            <Array as="points">
              <mxPoint x="118" y="317" />
              <mxPoint x="118" y="229" />
            </Array>
          </mxGeometry>
        </mxCell>
        <mxCell id="s7PfLLSVUXhe3LHx3dvH-41" value="&lt;div&gt;Btn:ESC&lt;/div&gt;" style="edgeLabel;html=1;align=center;verticalAlign=middle;resizable=0;points=[];" vertex="1" connectable="0" parent="s7PfLLSVUXhe3LHx3dvH-40">
          <mxGeometry x="0.2711" y="1" relative="1" as="geometry">
            <mxPoint x="-2" y="26" as="offset" />
          </mxGeometry>
        </mxCell>
        <mxCell id="s7PfLLSVUXhe3LHx3dvH-33" value="MainMenu" style="whiteSpace=wrap;strokeWidth=2;" vertex="1" parent="s7PfLLSVUXhe3LHx3dvH-65">
          <mxGeometry x="138" y="290" width="135" height="54" as="geometry" />
        </mxCell>
        <mxCell id="s7PfLLSVUXhe3LHx3dvH-34" value="Select:Play Game" style="curved=1;startArrow=none;endArrow=block;exitX=0.5;exitY=1;entryX=0.5;entryY=0;exitDx=0;exitDy=0;entryDx=0;entryDy=0;movable=0;resizable=0;rotatable=0;deletable=0;editable=0;locked=1;connectable=0;" edge="1" parent="s7PfLLSVUXhe3LHx3dvH-65" source="3" target="s7PfLLSVUXhe3LHx3dvH-33">
          <mxGeometry x="0.0049" relative="1" as="geometry">
            <Array as="points" />
            <mxPoint x="221" y="72" as="sourcePoint" />
            <mxPoint x="221" y="130" as="targetPoint" />
            <mxPoint as="offset" />
          </mxGeometry>
        </mxCell>
        <mxCell id="s7PfLLSVUXhe3LHx3dvH-39" style="edgeStyle=orthogonalEdgeStyle;rounded=0;orthogonalLoop=1;jettySize=auto;html=1;entryX=0.75;entryY=0;entryDx=0;entryDy=0;" edge="1" parent="s7PfLLSVUXhe3LHx3dvH-65" source="s7PfLLSVUXhe3LHx3dvH-35" target="3">
          <mxGeometry relative="1" as="geometry">
            <Array as="points">
              <mxPoint x="435" y="182" />
              <mxPoint x="239" y="182" />
            </Array>
          </mxGeometry>
        </mxCell>
        <mxCell id="s7PfLLSVUXhe3LHx3dvH-42" value="&lt;div&gt;Btn:ESC&lt;/div&gt;" style="edgeLabel;html=1;align=center;verticalAlign=middle;resizable=0;points=[];" vertex="1" connectable="0" parent="s7PfLLSVUXhe3LHx3dvH-39">
          <mxGeometry x="-0.0418" relative="1" as="geometry">
            <mxPoint as="offset" />
          </mxGeometry>
        </mxCell>
        <mxCell id="s7PfLLSVUXhe3LHx3dvH-35" value="MainOptions" style="whiteSpace=wrap;strokeWidth=2;" vertex="1" parent="s7PfLLSVUXhe3LHx3dvH-65">
          <mxGeometry x="395" y="202" width="135" height="54" as="geometry" />
        </mxCell>
        <mxCell id="s7PfLLSVUXhe3LHx3dvH-36" value="Select:Options" style="curved=1;startArrow=none;endArrow=block;exitX=1;exitY=0.5;entryX=0;entryY=0.5;exitDx=0;exitDy=0;entryDx=0;entryDy=0;" edge="1" parent="s7PfLLSVUXhe3LHx3dvH-65" source="3" target="s7PfLLSVUXhe3LHx3dvH-35">
          <mxGeometry x="0.0049" relative="1" as="geometry">
            <Array as="points" />
            <mxPoint x="216" y="154" as="sourcePoint" />
            <mxPoint x="216" y="212" as="targetPoint" />
            <mxPoint as="offset" />
          </mxGeometry>
        </mxCell>
        <mxCell id="s7PfLLSVUXhe3LHx3dvH-43" value="&lt;div&gt;QUIT GAME&lt;/div&gt;" style="ellipse;whiteSpace=wrap;html=1;aspect=fixed;" vertex="1" parent="s7PfLLSVUXhe3LHx3dvH-65">
          <mxGeometry x="423" y="322" width="80" height="80" as="geometry" />
        </mxCell>
        <mxCell id="s7PfLLSVUXhe3LHx3dvH-48" style="edgeStyle=orthogonalEdgeStyle;rounded=0;orthogonalLoop=1;jettySize=auto;html=1;entryX=0.5;entryY=0;entryDx=0;entryDy=0;" edge="1" parent="s7PfLLSVUXhe3LHx3dvH-65" source="s7PfLLSVUXhe3LHx3dvH-46" target="2">
          <mxGeometry relative="1" as="geometry" />
        </mxCell>
        <mxCell id="s7PfLLSVUXhe3LHx3dvH-46" value="&lt;div&gt;START GAME&lt;/div&gt;" style="ellipse;whiteSpace=wrap;html=1;aspect=fixed;" vertex="1" parent="s7PfLLSVUXhe3LHx3dvH-65">
          <mxGeometry width="80" height="80" as="geometry" />
        </mxCell>
        <mxCell id="s7PfLLSVUXhe3LHx3dvH-54" style="edgeStyle=orthogonalEdgeStyle;rounded=0;orthogonalLoop=1;jettySize=auto;html=1;exitX=0.75;exitY=1;exitDx=0;exitDy=0;" edge="1" parent="s7PfLLSVUXhe3LHx3dvH-65" target="s7PfLLSVUXhe3LHx3dvH-56" source="s7PfLLSVUXhe3LHx3dvH-33">
          <mxGeometry relative="1" as="geometry">
            <mxPoint x="340" y="392" as="sourcePoint" />
            <Array as="points">
              <mxPoint x="239" y="440" />
              <mxPoint x="340" y="440" />
            </Array>
          </mxGeometry>
        </mxCell>
        <mxCell id="s7PfLLSVUXhe3LHx3dvH-55" value="&lt;div&gt;Select:GameN&lt;/div&gt;" style="edgeLabel;html=1;align=center;verticalAlign=middle;resizable=0;points=[];" vertex="1" connectable="0" parent="s7PfLLSVUXhe3LHx3dvH-54">
          <mxGeometry x="0.2574" y="1" relative="1" as="geometry">
            <mxPoint x="-1" y="75" as="offset" />
          </mxGeometry>
        </mxCell>
        <mxCell id="s7PfLLSVUXhe3LHx3dvH-57" style="edgeStyle=orthogonalEdgeStyle;rounded=0;orthogonalLoop=1;jettySize=auto;html=1;exitX=0.5;exitY=1;exitDx=0;exitDy=0;entryX=0.5;entryY=0;entryDx=0;entryDy=0;" edge="1" parent="s7PfLLSVUXhe3LHx3dvH-65" target="s7PfLLSVUXhe3LHx3dvH-59" source="s7PfLLSVUXhe3LHx3dvH-33">
          <mxGeometry relative="1" as="geometry">
            <mxPoint x="50" y="420" as="sourcePoint" />
            <Array as="points">
              <mxPoint x="206" y="580" />
            </Array>
          </mxGeometry>
        </mxCell>
        <mxCell id="s7PfLLSVUXhe3LHx3dvH-58" value="&lt;div&gt;Select:Game...&lt;/div&gt;" style="edgeLabel;html=1;align=center;verticalAlign=middle;resizable=0;points=[];" vertex="1" connectable="0" parent="s7PfLLSVUXhe3LHx3dvH-57">
          <mxGeometry x="0.2574" y="1" relative="1" as="geometry">
            <mxPoint x="-6" y="32" as="offset" />
          </mxGeometry>
        </mxCell>
        <mxCell id="s7PfLLSVUXhe3LHx3dvH-62" style="edgeStyle=orthogonalEdgeStyle;rounded=0;orthogonalLoop=1;jettySize=auto;html=1;exitX=0;exitY=0;exitDx=0;exitDy=0;entryX=0;entryY=1;entryDx=0;entryDy=0;" edge="1" parent="s7PfLLSVUXhe3LHx3dvH-65" source="s7PfLLSVUXhe3LHx3dvH-60" target="s7PfLLSVUXhe3LHx3dvH-33">
          <mxGeometry relative="1" as="geometry">
            <Array as="points">
              <mxPoint y="480" />
              <mxPoint y="400" />
              <mxPoint x="138" y="400" />
            </Array>
          </mxGeometry>
        </mxCell>
        <mxCell id="s7PfLLSVUXhe3LHx3dvH-63" value="Btn:ESC" style="edgeLabel;html=1;align=center;verticalAlign=middle;resizable=0;points=[];" vertex="1" connectable="0" parent="s7PfLLSVUXhe3LHx3dvH-62">
          <mxGeometry x="-0.3074" y="-1" relative="1" as="geometry">
            <mxPoint x="58" y="1" as="offset" />
          </mxGeometry>
        </mxCell>
        <mxCell id="s7PfLLSVUXhe3LHx3dvH-60" value="" style="swimlane;startSize=0;" vertex="1" parent="s7PfLLSVUXhe3LHx3dvH-65">
          <mxGeometry x="-20" y="480" width="440" height="260" as="geometry" />
        </mxCell>
        <mxCell id="s7PfLLSVUXhe3LHx3dvH-56" value="&lt;div&gt;GameNMenu&lt;/div&gt;" style="rounded=0;whiteSpace=wrap;html=1;" vertex="1" parent="s7PfLLSVUXhe3LHx3dvH-60">
          <mxGeometry x="300" y="100" width="120" height="60" as="geometry" />
        </mxCell>
        <mxCell id="s7PfLLSVUXhe3LHx3dvH-59" value="&lt;div&gt;Game...Menu&lt;/div&gt;" style="rounded=0;whiteSpace=wrap;html=1;" vertex="1" parent="s7PfLLSVUXhe3LHx3dvH-60">
          <mxGeometry x="155" y="100" width="120" height="60" as="geometry" />
        </mxCell>
        <mxCell id="s7PfLLSVUXhe3LHx3dvH-49" value="&lt;div&gt;Game1Menu&lt;/div&gt;" style="rounded=0;whiteSpace=wrap;html=1;" vertex="1" parent="s7PfLLSVUXhe3LHx3dvH-60">
          <mxGeometry x="20" y="100" width="120" height="60" as="geometry" />
        </mxCell>
        <mxCell id="s7PfLLSVUXhe3LHx3dvH-50" style="edgeStyle=orthogonalEdgeStyle;rounded=0;orthogonalLoop=1;jettySize=auto;html=1;exitX=0.25;exitY=1;exitDx=0;exitDy=0;entryX=0.5;entryY=0;entryDx=0;entryDy=0;" edge="1" parent="s7PfLLSVUXhe3LHx3dvH-65" source="s7PfLLSVUXhe3LHx3dvH-33" target="s7PfLLSVUXhe3LHx3dvH-49">
          <mxGeometry relative="1" as="geometry">
            <mxPoint x="138.00000000000023" y="340.0000000000001" as="sourcePoint" />
            <mxPoint x="30" y="603" as="targetPoint" />
            <Array as="points">
              <mxPoint x="170" y="344" />
              <mxPoint x="170" y="440" />
              <mxPoint x="60" y="440" />
            </Array>
          </mxGeometry>
        </mxCell>
        <mxCell id="s7PfLLSVUXhe3LHx3dvH-53" value="&lt;div&gt;Select:Game1&lt;/div&gt;" style="edgeLabel;html=1;align=center;verticalAlign=middle;resizable=0;points=[];" vertex="1" connectable="0" parent="s7PfLLSVUXhe3LHx3dvH-50">
          <mxGeometry x="0.2574" y="1" relative="1" as="geometry">
            <mxPoint x="-1" y="79" as="offset" />
          </mxGeometry>
        </mxCell>
        <mxCell id="16" value="Load Level" style="curved=1;startArrow=none;endArrow=block;exitX=1;exitY=0.87;entryX=0.5;entryY=0;" parent="1" target="5" edge="1">
          <mxGeometry relative="1" as="geometry">
            <Array as="points">
              <mxPoint x="454" y="353" />
            </Array>
            <mxPoint x="298.00000000000045" y="308.98" as="sourcePoint" />
          </mxGeometry>
        </mxCell>
        <mxCell id="17" value="Complete Level" style="curved=1;startArrow=none;endArrow=block;exitX=0.04;exitY=1;entryX=0.13;entryY=0;" parent="1" target="6" edge="1">
          <mxGeometry relative="1" as="geometry">
            <Array as="points">
              <mxPoint x="332" y="480" />
            </Array>
            <mxPoint x="402.44000000000005" y="443" as="sourcePoint" />
          </mxGeometry>
        </mxCell>
        <mxCell id="18" value="Level Up" style="curved=1;startArrow=none;endArrow=block;exitX=0.5;exitY=1;entryX=0.5;entryY=0;" parent="1" target="7" edge="1">
          <mxGeometry relative="1" as="geometry">
            <Array as="points" />
            <mxPoint x="454" y="570" as="sourcePoint" />
          </mxGeometry>
        </mxCell>
        <mxCell id="19" value="Complete Level" style="curved=1;startArrow=none;endArrow=block;exitX=0.04;exitY=1;entryX=0.13;entryY=0;" parent="1" target="8" edge="1">
          <mxGeometry relative="1" as="geometry">
            <Array as="points">
              <mxPoint x="332" y="734" />
            </Array>
            <mxPoint x="402.44000000000005" y="697.0000000000002" as="sourcePoint" />
          </mxGeometry>
        </mxCell>
        <mxCell id="20" value="Level Up" style="curved=1;startArrow=none;endArrow=block;exitX=0.09;exitY=1;entryX=0;entryY=0.01;" parent="1" target="9" edge="1">
          <mxGeometry relative="1" as="geometry">
            <Array as="points">
              <mxPoint x="320" y="861" />
            </Array>
            <mxPoint x="396.5999999999999" y="824.0000000000005" as="sourcePoint" />
          </mxGeometry>
        </mxCell>
        <mxCell id="21" value="Complete Level" style="curved=1;startArrow=none;endArrow=block;exitX=0.5;exitY=1;entryX=0.5;entryY=0;" parent="1" target="10" edge="1">
          <mxGeometry relative="1" as="geometry">
            <Array as="points" />
            <mxPoint x="453.5" y="951.0000000000005" as="sourcePoint" />
          </mxGeometry>
        </mxCell>
        <mxCell id="22" value="Defeat Boss" style="curved=1;startArrow=none;endArrow=block;exitX=0;exitY=0.69;entryX=0.33;entryY=0;" parent="1" source="10" edge="1">
          <mxGeometry relative="1" as="geometry">
            <Array as="points">
              <mxPoint x="52" y="1115" />
            </Array>
            <mxPoint x="88.12000000000035" y="1151" as="targetPoint" />
          </mxGeometry>
        </mxCell>
        <mxCell id="24" value="Retry Level" style="curved=1;startArrow=none;endArrow=block;exitX=0.74;exitY=0;entryX=0.81;entryY=1;" parent="1" source="6" edge="1">
          <mxGeometry relative="1" as="geometry">
            <Array as="points">
              <mxPoint x="533" y="480" />
            </Array>
            <mxPoint x="487.90999999999985" y="443" as="targetPoint" />
          </mxGeometry>
        </mxCell>
        <mxCell id="25" value="Retry Level" style="curved=1;startArrow=none;endArrow=block;exitX=0.68;exitY=0;entryX=0.73;entryY=1;" parent="1" source="8" edge="1">
          <mxGeometry relative="1" as="geometry">
            <Array as="points">
              <mxPoint x="514" y="734" />
            </Array>
            <mxPoint x="479.02999999999975" y="697.0000000000002" as="targetPoint" />
          </mxGeometry>
        </mxCell>
        <mxCell id="26" value="Retry Level" style="curved=1;startArrow=none;endArrow=block;exitX=0.81;exitY=0;entryX=0.74;entryY=1;" parent="1" source="9" edge="1">
          <mxGeometry relative="1" as="geometry">
            <Array as="points">
              <mxPoint x="533" y="861" />
            </Array>
            <mxPoint x="487.60000000000036" y="824.0000000000005" as="targetPoint" />
          </mxGeometry>
        </mxCell>
        <mxCell id="27" value="Game Over" style="curved=1;startArrow=none;endArrow=block;exitX=1;exitY=0.84;entryX=0.29;entryY=0;" parent="1" source="10" edge="1">
          <mxGeometry relative="1" as="geometry">
            <Array as="points">
              <mxPoint x="679" y="1115" />
            </Array>
            <mxPoint x="735.6799999999998" y="1151" as="targetPoint" />
          </mxGeometry>
        </mxCell>
        <mxCell id="30" value="Play Again" style="curved=1;startArrow=none;endArrow=block;exitX=0.99;exitY=0.31;entryX=1;entryY=0.72;" parent="1" source="11" edge="1">
          <mxGeometry relative="1" as="geometry">
            <Array as="points">
              <mxPoint x="617" y="1115" />
              <mxPoint x="617" y="353" />
            </Array>
            <mxPoint x="298.00000000000045" y="300.8799999999999" as="targetPoint" />
          </mxGeometry>
        </mxCell>
        <mxCell id="31" value="Pause" style="curved=1;startArrow=none;endArrow=block;exitX=0.39;exitY=1;entryX=0.34;entryY=0;" parent="1" target="13" edge="1">
          <mxGeometry relative="1" as="geometry">
            <Array as="points">
              <mxPoint x="190" y="353" />
            </Array>
            <mxPoint x="210.15999999999985" y="316" as="sourcePoint" />
          </mxGeometry>
        </mxCell>
        <mxCell id="32" value="Resume" style="curved=1;startArrow=none;endArrow=block;exitX=0.55;exitY=0;entryX=0.6;entryY=1;" parent="1" source="13" edge="1">
          <mxGeometry relative="1" as="geometry">
            <Array as="points">
              <mxPoint x="261" y="353" />
            </Array>
            <mxPoint x="240.4000000000001" y="316" as="targetPoint" />
          </mxGeometry>
        </mxCell>
      </root>
    </mxGraphModel>
  </diagram>
</mxfile>
